<?xml version="1.0" encoding="UTF-8" standalone="no"?>
<!-- Created with Inkscape (http://www.inkscape.org/) -->

<svg
   xmlns:dc="http://purl.org/dc/elements/1.1/"
   xmlns:cc="http://creativecommons.org/ns#"
   xmlns:rdf="http://www.w3.org/1999/02/22-rdf-syntax-ns#"
   xmlns:svg="http://www.w3.org/2000/svg"
   xmlns="http://www.w3.org/2000/svg"
   xmlns:sodipodi="http://sodipodi.sourceforge.net/DTD/sodipodi-0.dtd"
   xmlns:inkscape="http://www.inkscape.org/namespaces/inkscape"
   version="1.1"
   id="svg2"
   width="115.6997"
   height="41.911018"
   viewBox="0 0 115.6997 41.911018"
   sodipodi:docname="brand.svg"
   inkscape:version="0.92.5 (2060ec1f9f, 2020-04-08)">
  <metadata
     id="metadata8">
    <rdf:RDF>
      <cc:Work
         rdf:about="">
        <dc:format>image/svg+xml</dc:format>
        <dc:type
           rdf:resource="http://purl.org/dc/dcmitype/StillImage" />
        <dc:title></dc:title>
      </cc:Work>
    </rdf:RDF>
  </metadata>
  <defs
     id="defs6" />
  <sodipodi:namedview
     pagecolor="#ffffff"
     bordercolor="#666666"
     borderopacity="1"
     objecttolerance="10"
     gridtolerance="10"
     guidetolerance="10"
     inkscape:pageopacity="0"
     inkscape:pageshadow="2"
     inkscape:window-width="1366"
     inkscape:window-height="704"
     id="namedview4"
     showgrid="false"
     inkscape:zoom="21.190756"
     inkscape:cx="36.272622"
     inkscape:cy="8.8864919"
     inkscape:window-x="0"
     inkscape:window-y="0"
     inkscape:window-maximized="1"
     inkscape:current-layer="svg2"
     showguides="true"
     inkscape:guide-bbox="true"
     fit-margin-top="0"
     fit-margin-left="0"
     fit-margin-right="0"
     fit-margin-bottom="0">
    <sodipodi:guide
       position="4.0864718e-17,5.7620875e-07"
       orientation="1,0"
       id="guide878"
       inkscape:locked="false"
       inkscape:label=""
       inkscape:color="rgb(0,0,255)" />
    <sodipodi:guide
       position="4.0864718e-17,5.7620875e-07"
       orientation="0,1"
       id="guide882"
       inkscape:locked="false"
       inkscape:label=""
       inkscape:color="rgb(0,0,255)" />
    <sodipodi:guide
       position="-1.1274725e-32,41.911018"
       orientation="0,1"
       id="guide884"
       inkscape:locked="false" />
    <sodipodi:guide
       position="9.8937216,5.7620875e-07"
       orientation="1,0"
       id="guide902"
       inkscape:locked="false" />
    <sodipodi:guide
       position="9.8937216,12.950882"
       orientation="0,1"
       id="guide904"
       inkscape:locked="false" />
    <sodipodi:guide
       position="9.8937216,3.05716"
       orientation="0,1"
       id="guide906"
       inkscape:locked="false" />
    <sodipodi:guide
       position="115.6997,36.997265"
       orientation="1,0"
       id="guide908"
       inkscape:locked="false" />
    <sodipodi:guide
       position="105.81711,36.997265"
       orientation="1,0"
       id="guide910"
       inkscape:locked="false" />
    <sodipodi:guide
       position="9.8937216,36.997265"
       orientation="0,1"
       id="guide912"
       inkscape:locked="false" />
    <sodipodi:guide
       position="9.8937216,21.235675"
       orientation="0,1"
       id="guide914"
       inkscape:locked="false" />
  </sodipodi:namedview>
  <g
     aria-label="MERCI"
     transform="matrix(1.8049478,0,0,1.1072714,-9.8425935,-0.088982)"
     style="font-style:normal;font-variant:normal;font-weight:normal;font-stretch:normal;font-size:20.36968422px;line-height:21.38816833px;font-family:Barlow;-inkscape-font-specification:Barlow;letter-spacing:0px;word-spacing:0px;fill:#000000;fill-opacity:1;stroke:none;stroke-width:1.52772641"
     id="text892">
    <path
       d="m 20.161898,4.6751602 q 0.101849,-0.1425878 0.244437,-0.1425878 h 1.059223 q 0.203697,0 0.203697,0.2036968 V 18.587654 q 0,0.203697 -0.203697,0.203697 h -1.038854 q -0.203697,0 -0.203697,-0.203697 V 7.2621101 q 0,-0.061109 -0.04074,-0.081479 -0.04074,-0.02037 -0.06111,0.040739 l -3.320258,5.0924209 q -0.101849,0.142588 -0.244437,0.142588 h -0.529611 q -0.142588,0 -0.244437,-0.122219 L 12.462158,7.2824797 q -0.02037,-0.061109 -0.06111,-0.040739 -0.04074,0.02037 -0.04074,0.081479 V 18.587654 q 0,0.203697 -0.203696,0.203697 h -1.038854 q -0.203697,0 -0.203697,-0.203697 V 4.7362692 q 0,-0.2036968 0.203697,-0.2036968 h 1.059223 q 0.162958,0 0.244436,0.1222181 l 3.829501,5.8053595 q 0.02037,0.02037 0.06111,0.02037 0.04074,0 0.06111,-0.02037 z"
       style="stroke-width:1.52772641"
       id="path916"
       inkscape:connector-curvature="0" />
    <path
       d="m 34.705817,5.5917959 q 0,0.2036969 -0.203697,0.2036969 h -7.496044 q -0.08148,0 -0.08148,0.081479 v 5.0313122 q 0,0.08148 0.08148,0.08148 h 5.255379 q 0.203697,0 0.203697,0.203697 v 0.855527 q 0,0.203697 -0.203697,0.203697 h -5.255379 q -0.08148,0 -0.08148,0.08148 v 5.112791 q 0,0.08148 0.08148,0.08148 h 7.496044 q 0.203697,0 0.203697,0.203697 v 0.855526 q 0,0.203697 -0.203697,0.203697 h -8.820073 q -0.203697,0 -0.203697,-0.203697 V 4.7362692 q 0,-0.2036968 0.203697,-0.2036968 h 8.820073 q 0.203697,0 0.203697,0.2036968 z"
       style="stroke-width:1.52772641"
       id="path918"
       inkscape:connector-curvature="0" />
    <path
       d="m 46.11283,18.791351 q -0.183327,0 -0.244436,-0.142587 l -2.994343,-6.314603 q -0.02037,-0.06111 -0.08148,-0.06111 h -3.462846 q -0.08148,0 -0.08148,0.08148 v 6.233123 q 0,0.203697 -0.203697,0.203697 h -1.038854 q -0.203697,0 -0.203697,-0.203697 V 4.7362692 q 0,-0.2036968 0.203697,-0.2036968 h 5.275748 q 1.751793,0 2.831386,1.0999629 1.079594,1.0795933 1.079594,2.8313861 0,1.4258779 -0.774048,2.4239926 -0.774048,0.998114 -2.098078,1.28329 -0.08148,0.04074 -0.04074,0.101848 l 3.055453,6.273863 q 0.02037,0.04074 0.02037,0.101849 0,0.142587 -0.162957,0.142587 z M 39.329726,5.7954928 q -0.08148,0 -0.08148,0.081479 v 5.1535302 q 0,0.08148 0.08148,0.08148 h 3.788761 q 1.181442,0 1.91475,-0.733308 0.733309,-0.7333086 0.733309,-1.9147503 0,-1.1814417 -0.733309,-1.9147503 -0.733308,-0.7536783 -1.91475,-0.7536783 z"
       style="stroke-width:1.52772641"
       id="path920"
       inkscape:connector-curvature="0" />
    <path
       d="m 54.60698,18.974678 q -1.425878,0 -2.505471,-0.549981 -1.079593,-0.570351 -1.690684,-1.588835 -0.590721,-1.038854 -0.590721,-2.383253 V 8.8509454 q 0,-1.3240295 0.590721,-2.3425137 0.611091,-1.0184842 1.690684,-1.5684657 1.079593,-0.5703511 2.505471,-0.5703511 1.425878,0 2.505471,0.5499815 1.079593,0.5499814 1.670314,1.548096 0.611091,0.9981145 0.611091,2.3017743 0,0.1018484 -0.06111,0.1629575 -0.06111,0.061109 -0.142588,0.061109 l -1.038854,0.061109 q -0.203697,0 -0.203697,-0.1833272 V 8.810206 q 0,-1.4462476 -0.916636,-2.3017744 -0.916635,-0.8758964 -2.423992,-0.8758964 -1.507357,0 -2.423992,0.8758964 -0.916636,0.8758965 -0.916636,2.3017744 v 5.703512 q 0,1.425878 0.916636,2.301774 0.916635,0.875896 2.423992,0.875896 1.507357,0 2.423992,-0.855526 0.916636,-0.875897 0.916636,-2.322144 v -0.04074 q 0,-0.183327 0.203697,-0.183327 l 1.038854,0.06111 q 0.203697,0 0.203697,0.183327 0,1.32403 -0.611091,2.342514 -0.590721,0.998115 -1.670314,1.548096 -1.079593,0.549981 -2.505471,0.549981 z"
       style="stroke-width:1.52772641"
       id="path922"
       inkscape:connector-curvature="0" />
    <path
       d="m 62.836299,18.791351 q -0.203697,0 -0.203697,-0.203697 V 4.7362692 q 0,-0.2036968 0.203697,-0.2036968 h 1.038854 q 0.203697,0 0.203697,0.2036968 V 18.587654 q 0,0.203697 -0.203697,0.203697 z"
       style="stroke-width:1.52772641"
       id="path924"
       inkscape:connector-curvature="0" />
  </g>
  <path
     style="opacity:1;fill:#000000;fill-opacity:1;stroke:none;stroke-width:2.13153315;stroke-miterlimit:4;stroke-dasharray:none;stroke-opacity:0"
     d="m 24.485754,28.960142 a 5.3012208,4.9470969 0 0 0 -5.122522,4.757825 5.3012208,4.9470969 0 0 0 5.087437,5.129753 l 0.03891,0.0015 a 5.3012208,4.9470969 0 0 0 5.469542,-4.775731 5.3012208,4.9470969 0 0 0 -5.107719,-5.112871 5.3012208,4.9470969 0 0 0 -0.36566,-5.2e-4 z m 0.395812,0.809341 a 4.3271449,4.1429754 0 0 1 4.103937,4.276416 4.3271449,4.1429754 0 0 1 -4.103937,3.994014 v -2.66387 a 1.5922395,1.4858772 0 0 0 1.370537,-1.420697 1.5922395,1.4858772 0 0 0 -1.370537,-1.521991 z m -0.441861,5.21e-4 v 2.66336 a 1.5922395,1.4858772 0 0 0 -1.369991,1.415069 1.5922395,1.4858772 0 0 0 1.369991,1.527621 v 2.66437 a 4.3271449,4.1429754 0 0 1 -4.102843,-4.292273 4.3271449,4.1429754 0 0 1 4.102843,-3.978156 z"
     id="path819"
     inkscape:connector-curvature="0" />
  <path
     inkscape:connector-curvature="0"
     id="path927"
     style="font-style:normal;font-variant:normal;font-weight:normal;font-stretch:normal;font-size:11.14700985px;line-height:11.70436096px;font-family:Barlow;-inkscape-font-specification:Barlow;letter-spacing:0px;word-spacing:0px;fill:#000000;fill-opacity:1;stroke:none;stroke-width:1.18241727"
     d="m 14.014047,38.96961 q -1.233205,0 -2.166916,-0.380932 Q 10.913418,38.19364 10.384902,37.488213 9.8740035,36.768678 9.8740035,35.837515 V 31.95767 q 0,-0.917055 0.5108985,-1.622482 0.528516,-0.705426 1.462229,-1.086356 0.933711,-0.39504 2.166916,-0.39504 1.233205,0 2.166918,0.380931 0.933711,0.38093 1.44461,1.072248 0.528516,0.691318 0.528516,1.594265 0,0.07055 -0.05285,0.112873 -0.05285,0.04232 -0.12332,0.04232 l -0.898478,0.04232 q -0.176169,0 -0.176169,-0.126977 v -0.04232 q 0,-1.001706 -0.792776,-1.594266 -0.792773,-0.606666 -2.096448,-0.606666 -1.303673,0 -2.096446,0.606666 -0.792776,0.606668 -0.792776,1.594266 v 3.950387 q 0,0.987598 0.792776,1.594264 0.792773,0.606668 2.096446,0.606668 1.303675,0 2.096448,-0.592559 0.792776,-0.606667 0.792776,-1.608373 v -0.02821 q 0,-0.126976 0.176169,-0.126976 l 0.898478,0.04232 q 0.176169,0 0.176169,0.126977 0,0.917054 -0.528516,1.622482 -0.510899,0.691317 -1.44461,1.072247 -0.933713,0.380931 -2.166917,0.380931 z" />
  <path
     inkscape:connector-curvature="0"
     id="path931"
     style="font-style:normal;font-variant:normal;font-weight:normal;font-stretch:normal;font-size:11.14700985px;line-height:11.70436096px;font-family:Barlow;-inkscape-font-specification:Barlow;letter-spacing:0px;word-spacing:0px;fill:#000000;fill-opacity:1;stroke:none;stroke-width:1.18241727"
     d="m 32.089275,38.842632 q -0.17617,0 -0.17617,-0.141085 v -9.5938 q 0,-0.141086 0.17617,-0.141086 h 0.898479 q 0.176169,0 0.176169,0.141086 v 8.803723 q 0,0.05644 0.07047,0.05644 h 6.218877 q 0.17617,0 0.17617,0.141085 v 0.592558 q 0,0.141085 -0.17617,0.141085 z" />
  <path
     inkscape:connector-curvature="0"
     id="path933"
     style="font-style:normal;font-variant:normal;font-weight:normal;font-stretch:normal;font-size:11.14700985px;line-height:11.70436096px;font-family:Barlow;-inkscape-font-specification:Barlow;letter-spacing:0px;word-spacing:0px;fill:#000000;fill-opacity:1;stroke:none;stroke-width:1.18241727"
     d="m 42.095829,38.842632 q -0.176169,0 -0.176169,-0.141085 v -9.5938 q 0,-0.141086 0.176169,-0.141086 h 0.89848 q 0.176169,0 0.176169,0.141086 v 8.803723 q 0,0.05644 0.07047,0.05644 h 6.218875 q 0.176169,0 0.176169,0.141085 v 0.592558 q 0,0.141085 -0.176169,0.141085 z" />
  <path
     inkscape:connector-curvature="0"
     id="path935"
     style="font-style:normal;font-variant:normal;font-weight:normal;font-stretch:normal;font-size:11.14700985px;line-height:11.70436096px;font-family:Barlow;-inkscape-font-specification:Barlow;letter-spacing:0px;word-spacing:0px;fill:#000000;fill-opacity:1;stroke:none;stroke-width:1.18241727"
     d="m 59.906811,29.700304 q 0,0.141086 -0.176169,0.141086 h -6.483137 q -0.07047,0 -0.07047,0.05644 v 3.484808 q 0,0.05644 0.07047,0.05644 h 4.545241 q 0.176169,0 0.176169,0.141085 v 0.592558 q 0,0.141085 -0.176169,0.141085 h -4.545241 q -0.07047,0 -0.07047,0.05644 v 3.541242 q 0,0.05644 0.07047,0.05644 h 6.483135 q 0.176169,0 0.176169,0.141085 v 0.592558 q 0,0.141085 -0.176169,0.141085 h -7.628252 q -0.176169,0 -0.176169,-0.141085 v -9.5938 q 0,-0.141085 0.176169,-0.141085 h 7.628252 q 0.176169,0 0.176169,0.141085 z" />
  <path
     inkscape:connector-curvature="0"
     id="path937"
     style="font-style:normal;font-variant:normal;font-weight:normal;font-stretch:normal;font-size:11.14700985px;line-height:11.70436096px;font-family:Barlow;-inkscape-font-specification:Barlow;letter-spacing:0px;word-spacing:0px;fill:#000000;fill-opacity:1;stroke:none;stroke-width:1.18241727"
     d="m 66.337084,38.96961 q -1.233205,0 -2.166918,-0.380932 Q 63.236454,38.19364 62.707939,37.488213 62.19704,36.768678 62.19704,35.837515 V 31.95767 q 0,-0.917055 0.510899,-1.622482 0.528515,-0.705426 1.462227,-1.086356 0.933713,-0.39504 2.166918,-0.39504 1.233205,0 2.166918,0.380931 0.933711,0.38093 1.44461,1.072248 0.528518,0.691318 0.528518,1.594265 0,0.07055 -0.05285,0.112873 -0.05285,0.04232 -0.123321,0.04232 l -0.898477,0.04232 q -0.176169,0 -0.176169,-0.126977 v -0.04232 q 0,-1.001706 -0.792774,-1.594266 -0.792774,-0.606666 -2.096448,-0.606666 -1.303673,0 -2.096449,0.606666 -0.792773,0.606668 -0.792773,1.594266 v 3.950387 q 0,0.987598 0.792773,1.594264 0.792776,0.606668 2.096449,0.606668 1.303674,0 2.096448,-0.592559 0.792774,-0.606667 0.792774,-1.608373 v -0.02821 q 0,-0.126976 0.176169,-0.126976 l 0.898477,0.04232 q 0.17617,0 0.17617,0.126977 0,0.917054 -0.528518,1.622482 -0.510899,0.691317 -1.44461,1.072247 -0.933713,0.380931 -2.166917,0.380931 z" />
  <path
     inkscape:connector-curvature="0"
     id="path939"
     style="font-style:normal;font-variant:normal;font-weight:normal;font-stretch:normal;font-size:11.14700985px;line-height:11.70436096px;font-family:Barlow;-inkscape-font-specification:Barlow;letter-spacing:0px;word-spacing:0px;fill:#000000;fill-opacity:1;stroke:none;stroke-width:1.18241727"
     d="m 80.554132,28.966661 q 0.176169,0 0.176169,0.141086 v 0.606666 q 0,0.141085 -0.176169,0.141085 h -3.452974 q -0.07047,0 -0.07047,0.05644 v 8.789614 q 0,0.141085 -0.17617,0.141085 h -0.898479 q -0.176169,0 -0.176169,-0.141085 v -8.789614 q 0,-0.05644 -0.07047,-0.05644 h -3.312036 q -0.17617,0 -0.17617,-0.141085 v -0.606666 q 0,-0.141086 0.17617,-0.141086 z" />
  <path
     inkscape:connector-curvature="0"
     id="path941"
     style="font-style:normal;font-variant:normal;font-weight:normal;font-stretch:normal;font-size:11.14700985px;line-height:11.70436096px;font-family:Barlow;-inkscape-font-specification:Barlow;letter-spacing:0px;word-spacing:0px;fill:#000000;fill-opacity:1;stroke:none;stroke-width:1.18241727"
     d="m 83.32001,38.842632 q -0.176169,0 -0.176169,-0.141085 v -9.5938 q 0,-0.141086 0.176169,-0.141086 h 0.898477 q 0.176169,0 0.176169,0.141086 v 9.5938 q 0,0.141085 -0.176169,0.141085 z" />
  <path
     inkscape:connector-curvature="0"
     id="path943"
     style="font-style:normal;font-variant:normal;font-weight:normal;font-stretch:normal;font-size:11.14700985px;line-height:11.70436096px;font-family:Barlow;-inkscape-font-specification:Barlow;letter-spacing:0px;word-spacing:0px;fill:#000000;fill-opacity:1;stroke:none;stroke-width:1.18241727"
     d="m 90.736834,38.842632 q -0.158546,0 -0.211407,-0.112873 l -3.840552,-9.607909 -0.0176,-0.05644 q 0,-0.09876 0.158546,-0.09876 h 0.95133 q 0.158547,0 0.211406,0.112873 l 3.206332,8.267598 q 0.0176,0.02821 0.05285,0.02821 0.03523,0 0.05285,-0.02821 l 3.206331,-8.267598 q 0.05285,-0.112873 0.211407,-0.112873 h 0.933713 q 0.193792,0 0.140943,0.155193 l -3.875786,9.607909 q -0.05285,0.112873 -0.211407,0.112873 z" />
  <path
     inkscape:connector-curvature="0"
     id="path945"
     style="font-style:normal;font-variant:normal;font-weight:normal;font-stretch:normal;font-size:11.14700985px;line-height:11.70436096px;font-family:Barlow;-inkscape-font-specification:Barlow;letter-spacing:0px;word-spacing:0px;fill:#000000;fill-opacity:1;stroke:none;stroke-width:1.18241727"
     d="m 105.81711,29.700304 q 0,0.141086 -0.17617,0.141086 h -6.48313 q -0.07047,0 -0.07047,0.05644 v 3.484808 q 0,0.05644 0.07047,0.05644 h 4.54524 q 0.17617,0 0.17617,0.141085 v 0.592558 q 0,0.141085 -0.17617,0.141085 h -4.54524 q -0.07047,0 -0.07047,0.05644 v 3.541242 q 0,0.05644 0.07047,0.05644 h 6.48313 q 0.17617,0 0.17617,0.141085 v 0.592558 q 0,0.141085 -0.17617,0.141085 h -7.628251 q -0.176169,0 -0.176169,-0.141085 v -9.5938 q 0,-0.141085 0.176169,-0.141085 h 7.628251 q 0.17617,0 0.17617,0.141085 z" />
  <text
     xml:space="preserve"
     style="font-style:normal;font-variant:normal;font-weight:900;font-stretch:normal;font-size:13.33333302px;line-height:14px;font-family:Barlow;-inkscape-font-specification:'Barlow Heavy';letter-spacing:0px;word-spacing:0px;fill:#000000;fill-opacity:1;stroke:none"
     x="18.019068"
     y="-8.4088964"
     id="text36"><tspan
       sodipodi:role="line"
       id="tspan34"
       x="18.019068"
       y="3.0355482"></tspan></text>
</svg>
