<?xml version="1.0" encoding="UTF-8" standalone="no"?>
<!-- Created with Inkscape (http://www.inkscape.org/) -->

<svg
   xmlns:dc="http://purl.org/dc/elements/1.1/"
   xmlns:cc="http://creativecommons.org/ns#"
   xmlns:rdf="http://www.w3.org/1999/02/22-rdf-syntax-ns#"
   xmlns:svg="http://www.w3.org/2000/svg"
   xmlns="http://www.w3.org/2000/svg"
   xmlns:sodipodi="http://sodipodi.sourceforge.net/DTD/sodipodi-0.dtd"
   xmlns:inkscape="http://www.inkscape.org/namespaces/inkscape"
   version="1.1"
   id="svg2"
   width="7.9999995"
   height="7.9999723"
   viewBox="0 0 7.9999995 7.9999723"
   sodipodi:docname="list-style-image.svg"
   inkscape:version="0.92.5 (2060ec1f9f, 2020-04-08)">
  <metadata
     id="metadata8">
    <rdf:RDF>
      <cc:Work
         rdf:about="">
        <dc:format>image/svg+xml</dc:format>
        <dc:type
           rdf:resource="http://purl.org/dc/dcmitype/StillImage" />
        <dc:title></dc:title>
      </cc:Work>
    </rdf:RDF>
  </metadata>
  <defs
     id="defs6" />
  <sodipodi:namedview
     pagecolor="#ffffff"
     bordercolor="#666666"
     borderopacity="1"
     objecttolerance="10"
     gridtolerance="10"
     guidetolerance="10"
     inkscape:pageopacity="0"
     inkscape:pageshadow="2"
     inkscape:window-width="1366"
     inkscape:window-height="704"
     id="namedview4"
     showgrid="false"
     inkscape:zoom="7.4920635"
     inkscape:cx="15.621822"
     inkscape:cy="25.898306"
     inkscape:window-x="0"
     inkscape:window-y="0"
     inkscape:window-maximized="1"
     inkscape:current-layer="svg2"
     fit-margin-top="0"
     fit-margin-left="0"
     fit-margin-right="0"
     fit-margin-bottom="0" />
  <path
     style="opacity:1;fill:#000000;fill-opacity:1;stroke:none;stroke-width:1.66486168;stroke-miterlimit:4;stroke-dasharray:none;stroke-opacity:0"
     d="M 3.8678908,0.00218125 A 3.9998785,3.9999239 0 0 0 0.00284459,3.849071 3.9998785,3.9999239 0 0 0 3.8414177,7.9966808 l 0.029368,0.0012 A 3.9998785,3.9999239 0 0 0 7.997666,4.1365533 3.9998785,3.9999239 0 0 0 4.1437882,0.00259475 3.9998785,3.9999239 0 0 0 3.8678908,0.00217365 Z m 0.2986476,0.6543848 A 3.2649185,3.3497597 0 0 1 7.263042,4.1142173 3.2649185,3.3497597 0 0 1 4.1665384,7.3435368 V 5.1896913 A 1.201377,1.2013906 0 0 0 5.2006371,4.0410023 1.201377,1.2013906 0 0 0 4.1665384,2.8104106 Z m -0.3333933,4.211e-4 V 2.8104184 A 1.201377,1.2013906 0 0 0 2.7994603,3.9545581 1.201377,1.2013906 0 0 0 3.8331451,5.1896993 V 7.3439498 A 3.2649185,3.3497597 0 0 1 0.73746809,3.8734759 3.2649185,3.3497597 0 0 1 3.8331451,0.65697975 Z"
     id="path819"
     inkscape:connector-curvature="0" />
</svg>
